<svg width="24" height="24" viewBox="0 0 24 24" fill="none" xmlns="http://www.w3.org/2000/svg">
<path d="M22 10C22 9.447 21.552 9 21 9C20.448 9 20 9.447 20 10C20 14.411 16.411 18 12 18C7.589 18 4 14.411 4 10C4 9.447 3.552 9 3 9C2.448 9 2 9.447 2 10C2 15.176 5.954 19.446 11 19.949V22H7C6.448 22 6 22.447 6 23C6 23.553 6.448 24 7 24H17C17.552 24 18 23.553 18 23C18 22.447 17.552 22 17 22H13V19.949C18.046 19.446 22 15.176 22 10Z" fill="#B3BDC6"/>
<path d="M15 9V7H18V6C18 2.691 15.309 0 12 0C8.691 0 6 2.691 6 6V7H9V9H6V10C6 13.309 8.691 16 12 16C15.309 16 18 13.309 18 10V9H15Z" fill="#B3BDC6"/>
</svg>
