<svg width="24" height="24" viewBox="0 0 24 24" fill="none" xmlns="http://www.w3.org/2000/svg">
<path d="M17 2C16.095 2 15.27 2.312 14.6 2.818C15.475 3.986 16 5.431 16 7V8C16 8.953 15.807 9.862 15.46 10.691C15.935 10.889 16.454 11 17 11C19.209 11 21 9.209 21 7V6C21 3.791 19.209 2 17 2Z" fill="white"/>
<path d="M9 13C6.239 13 4 10.761 4 8V7C4 4.239 6.239 2 9 2C11.761 2 14 4.239 14 7V8C14 10.761 11.761 13 9 13Z" fill="white"/>
<path d="M22.839 14.405C21.555 13.815 19.354 13 17 13C15.805 13 14.65 13.211 13.633 13.495C14.009 13.573 14.386 13.652 14.763 13.748C17.674 14.49 19.733 17.023 19.955 20H23C23.552 20 24 19.552 24 19V16.221C24 15.439 23.55 14.731 22.839 14.405Z" fill="white"/>
<path d="M17 22H1C0.448 22 0 21.552 0 21V20.525C0 18.25 1.527 16.248 3.731 15.686C5.205 15.31 7.021 15 9 15C10.979 15 12.795 15.31 14.269 15.686C16.473 16.248 18 18.25 18 20.525V21C18 21.552 17.552 22 17 22Z" fill="white"/>
</svg>
